PathFileType	4	(X/Y/Z)	C:\Users\ebm\Documents\Erivelton\Erivelton2\wc4.trc
DataRate	CameraRate	NumFrames	NumMarkers	Units	OrigDataRate	OrigDataStartFrame	OrigNumFrames
150.00	150.00	      10	28	mm	150.00	463	      1232
Frame#	Time	IJ			PX			C7			T8			RAC			RAS			RPS			RAI			RPI			RLE			RME			RRS			RUS			R3M			R5M			LAC			LAS			LPS			LAI			LPI			LLE			LME			LRS			LUS			L3M			L5M			RW			LW			V_mid_elbow_r			V_mid_elbow_l			V_mid_wrist_r			V_mid_wrist_l			V_mid_trunk_low			V_mid_trunk_upp			
		X1	Y1	Z1	X2	Y2	Z2	X3	Y3	Z3	X4	Y4	Z4	X5	Y5	Z5	X6	Y6	Z6	X7	Y7	Z7	X8	Y8	Z8	X9	Y9	Z9	X10	Y10	Z10	X11	Y11	Z11	X12	Y12	Z12	X13	Y13	Z13	X14	Y14	Z14	X15	Y15	Z15	X16	Y16	Z16	X17	Y17	Z17	X18	Y18	Z18	X19	Y19	Z19	X20	Y20	Z20	X21	Y21	Z21	X22	Y22	Z22	X23	Y23	Z23	X24	Y24	Z24	X25	Y25	Z25	X26	Y26	Z26	X27	Y27	Z27	X28	Y28	Z28	

463	3.080	-448.71661	1014.64209	-39.40250	-453.97244	851.24548	-24.57500	-567.98950	1130.24927	-45.78309	-659.73370	988.93787	-38.45100	-526.88275	1077.07764	160.19562	-629.51978	955.03003	244.38257	-657.72156	994.24762	232.59633	-686.96582	912.83942	276.94846	-719.32660	954.24396	267.26196	-762.03027	900.16333	296.60733	-790.93433	885.42664	219.82748	-655.81549	655.00549	251.94716	-696.19690	644.10101	297.33154	-627.94031	588.38171	290.02521	-662.35907	572.85651	302.03351	-533.73328	1075.04297	-222.38481	-637.33527	987.38922	-304.06219	-669.17224	1005.14209	-272.21808	-690.29498	938.48657	-340.83267	-728.22278	956.46490	-306.75867	-755.61737	880.05432	-373.57910	-794.08411	868.99921	-302.37152	-639.04004	646.08142	-330.58240	-676.10175	620.32117	-375.05115	-605.08795	577.09332	-368.62637	-642.11145	564.26025	-378.21451	-554.22961	298.49048	276.51981	-531.50726	299.42151	-351.95120	
464	3.087	-441.23361	1014.55328	-39.37170	-446.60248	851.23486	-24.48046	-560.49310	1130.32605	-45.55813	-652.34564	989.11633	-38.19058	-519.53412	1077.18127	160.33955	-623.13141	955.69446	243.85835	-651.13397	995.07245	231.83025	-681.10767	913.54645	275.53619	-713.15259	955.33655	266.03149	-756.16583	901.41394	295.12766	-784.72278	887.06934	218.17130	-652.94360	654.97784	250.49727	-693.50378	644.35248	295.85892	-626.05951	588.46002	289.18994	-660.60962	572.80560	300.48804	-526.74921	1075.51465	-222.28354	-630.79181	988.48187	-303.34756	-662.40991	1006.65356	-271.35629	-684.50055	940.11499	-339.78351	-722.10651	958.49445	-305.44806	-750.70587	882.40247	-372.20071	-788.89917	872.03766	-300.78406	-638.49109	646.14679	-329.07568	-675.65436	621.14362	-373.86325	-605.22565	577.05200	-366.95859	-642.30005	564.61023	-376.90213	-547.12451	298.54678	276.70325	-524.02557	299.43405	-351.69684	
465	3.093	-433.80878	1014.47046	-39.19116	-439.26639	851.12000	-24.33516	-552.91382	1130.37170	-45.34793	-644.94556	989.26990	-37.91748	-512.04852	1077.22253	160.39993	-616.59644	956.09003	243.35904	-644.36963	995.62195	231.17305	-674.92902	914.17181	274.73264	-706.77258	956.18524	264.95972	-750.35028	902.44598	293.77509	-778.40131	888.35883	216.55478	-649.68756	654.60339	249.13132	-690.73431	644.52521	294.43179	-623.72546	587.95044	288.95401	-658.87952	572.52881	298.99863	-519.02142	1075.43787	-221.73856	-624.30371	989.54749	-302.68558	-655.51306	1007.94403	-270.50922	-678.61304	941.57648	-338.79080	-715.82080	960.29114	-304.30707	-745.51929	884.43042	-370.87683	-783.37317	874.75238	-299.27725	-637.76752	646.08008	-327.40680	-674.86212	621.87286	-372.74170	-605.20630	576.92566	-365.44135	-642.21277	564.86469	-375.52615	-540.09064	298.59811	276.94971	-516.48132	299.47073	-351.38275	
466	3.100	-426.36938	1014.36609	-38.95464	-432.06754	851.11426	-24.30873	-545.43384	1130.45288	-45.13327	-637.54407	989.37866	-37.68489	-504.68481	1077.29272	160.59291	-610.01996	956.40045	242.89905	-637.52124	995.98022	230.58258	-668.38867	914.50226	273.98007	-700.20135	956.67932	263.96921	-744.15070	903.11053	292.40173	-771.82568	889.29089	215.12837	-646.03308	654.26111	248.00983	-687.40997	644.30896	293.06931	-621.65002	586.83252	290.66061	-656.02399	572.00787	298.18292	-511.67279	1075.55432	-221.45956	-617.79468	990.47211	-302.05560	-648.56842	1009.07971	-269.69049	-672.56848	942.83667	-337.84518	-709.42542	961.87811	-303.14615	-740.10199	886.22424	-369.67175	-777.77087	877.18048	-297.85458	-636.55231	645.99988	-325.75284	-673.79950	622.39215	-371.43420	-604.80151	576.60876	-363.87140	-641.76520	564.82574	-373.97739	-533.04779	298.65912	277.13821	-509.12686	299.58649	-351.19205	
467	3.107	-418.87180	1014.22766	-38.74653	-424.73203	850.99683	-24.08521	-537.93353	1130.45605	-44.95285	-630.19537	989.50690	-37.46564	-497.28235	1077.26196	160.79887	-603.26135	956.40973	242.44858	-630.61676	996.13196	230.05893	-661.82648	914.70740	273.29309	-693.55353	956.91058	263.09546	-737.59808	903.35297	291.22220	-765.05707	889.91193	213.78209	-641.86871	653.66522	247.11775	-683.69995	643.77185	291.78601	-617.91382	586.34863	289.66678	-652.44873	571.98938	297.13580	-504.35461	1075.70386	-221.21292	-610.96490	991.15399	-301.38696	-641.46112	1010.04498	-268.86090	-666.31757	943.94012	-336.95181	-702.92932	963.19031	-302.11896	-734.48224	887.80737	-368.51846	-771.82660	879.36316	-296.45132	-634.97992	645.79907	-324.24777	-672.44208	622.66437	-370.10901	-604.21783	576.24530	-362.49045	-641.07813	564.62659	-372.44928	-526.10950	298.68777	277.39920	-501.73044	299.63235	-350.97928	
468	3.113	-411.59662	1014.19293	-38.70197	-417.45694	850.91595	-23.93109	-530.42352	1130.46216	-44.71152	-622.82141	989.64850	-37.23441	-489.85236	1077.18066	160.97725	-596.24054	956.27905	241.93791	-623.60779	996.09241	229.62338	-655.17487	914.78088	272.56985	-686.74109	956.85950	262.31586	-731.14087	903.39008	290.05222	-758.16174	890.27966	212.48299	-637.08087	652.90753	246.31487	-679.48334	643.32648	290.42740	-613.71045	585.89117	288.84790	-648.67523	571.60901	296.18158	-496.93674	1075.73206	-220.94252	-604.25793	991.80585	-300.78726	-634.51563	1010.88025	-268.21112	-659.80896	944.82050	-336.08618	-696.31561	964.36737	-301.18518	-728.62646	889.07843	-367.40439	-765.77515	881.24670	-295.11844	-633.02142	645.50891	-323.00128	-670.85736	622.73804	-368.64490	-603.16235	575.83429	-361.17096	-640.40515	564.21118	-370.76782	-519.09558	298.69666	277.58096	-494.25739	299.62369	-350.69470	
469	3.120	-404.14758	1014.02997	-38.46910	-410.51282	850.70569	-23.59268	-522.97827	1130.45056	-44.46516	-615.41992	989.75549	-37.00060	-482.42279	1077.07861	161.24120	-589.29163	955.95868	241.63930	-616.44958	995.75421	229.28163	-648.26782	914.36975	271.87885	-679.75189	956.44037	261.58707	-724.24091	902.99158	289.02292	-751.13312	890.23053	211.27103	-631.85034	652.09454	245.64191	-674.61481	642.54626	289.67514	-608.82111	585.45276	288.20584	-643.78650	570.79004	295.45782	-489.55609	1075.79651	-220.70200	-597.44751	992.36786	-300.25391	-627.42346	1011.51648	-267.55087	-653.41028	945.62793	-335.34378	-689.56439	965.28113	-300.25134	-722.45203	890.05029	-366.27225	-759.45038	882.80750	-293.94760	-630.57861	645.15076	-321.78815	-668.99927	622.47614	-367.16647	-601.65308	575.32446	-360.10175	-639.14264	564.00287	-369.40353	-512.27124	298.71451	277.82953	-486.95993	299.69492	-350.47220	
470	3.127	-396.68106	1013.84753	-38.27748	-403.09177	850.61353	-23.57150	-515.50970	1130.43506	-44.23096	-608.07422	989.86481	-36.83658	-474.92447	1076.89709	161.45236	-582.17157	955.44269	241.26288	-609.31903	995.26050	229.05112	-641.21277	913.64331	271.21674	-672.80908	955.87128	260.95297	-717.54712	902.40662	287.95554	-743.84021	889.84937	210.13509	-626.05945	651.13531	244.96593	-668.81378	641.68933	288.92834	-602.84192	584.97266	287.78360	-638.05902	570.28778	295.17892	-482.18103	1075.80896	-220.50134	-590.45789	992.69928	-299.76672	-620.46252	1012.00903	-266.95551	-646.64185	946.05756	-334.58447	-682.69330	965.97418	-299.44971	-716.10144	890.81628	-365.26590	-752.99933	884.18359	-292.87607	-627.51074	644.68652	-320.92535	-666.85187	622.18787	-365.65375	-599.50189	574.83368	-359.28387	-637.00433	563.89368	-367.93274	-505.34116	298.69925	278.03632	-479.61154	299.68008	-350.17123	
471	3.133	-389.25256	1013.72308	-38.10781	-395.92163	850.51306	-23.30614	-508.05249	1130.41614	-43.98748	-600.78577	989.96796	-36.64054	-467.51480	1076.73279	161.71519	-574.99481	954.69946	240.94023	-602.21149	994.61469	228.90404	-634.03320	912.71460	270.54492	-665.64447	954.93378	260.41663	-710.49475	901.46960	287.01303	-736.40735	889.05298	209.04289	-619.53320	649.98566	244.32082	-662.46533	640.54291	288.59909	-596.22125	584.48529	287.71405	-631.30237	569.48431	295.13538	-474.77444	1075.86316	-220.31952	-583.50696	992.93164	-299.27521	-613.19940	1012.28284	-266.42874	-639.79419	946.36511	-333.86353	-675.74347	966.39209	-298.71725	-709.50366	891.17468	-364.32162	-746.29297	885.28937	-291.87799	-623.85223	644.21735	-320.05872	-664.08783	621.64948	-364.17203	-596.59741	574.54620	-358.50912	-634.18823	563.51929	-366.74561	-498.52588	298.74713	278.29407	-472.33240	299.70520	-349.85953	
472	3.140	-381.84503	1013.63544	-37.95885	-388.67075	850.39423	-23.16029	-500.57764	1130.38257	-43.75704	-593.41138	990.02441	-36.41527	-460.10165	1076.52539	161.97476	-567.70447	953.77155	240.74617	-594.97589	993.71954	228.77196	-626.84467	911.58783	270.07770	-658.39594	953.73364	259.95270	-703.36462	900.27478	286.22653	-728.76965	887.88416	208.08464	-612.55786	648.60693	243.93443	-655.89392	638.53180	287.45279	-588.51422	584.24811	288.41840	-623.83234	568.85956	295.37051	-467.77509	1076.04639	-220.25273	-576.30634	992.86871	-298.81641	-606.18030	1012.41907	-265.98505	-632.88123	946.37036	-333.28140	-668.70477	966.50446	-298.10782	-702.73132	891.31616	-363.35904	-739.41742	886.04712	-290.94556	-619.55017	643.60034	-319.31570	-660.49420	621.01770	-362.72290	-592.64813	574.54486	-357.79626	-630.37622	563.11182	-365.74585	-491.75723	298.80060	278.54141	-465.18506	299.80347	-349.62366	
